<?xml version="1.0" encoding="utf-8" standalone="no"?>
<!DOCTYPE svg PUBLIC "-//W3C//DTD SVG 1.1//EN"
  "http://www.w3.org/Graphics/SVG/1.1/DTD/svg11.dtd">
<svg xmlns:xlink="http://www.w3.org/1999/xlink" width="404.923125pt" height="325.986375pt" viewBox="0 0 404.923125 325.986375" xmlns="http://www.w3.org/2000/svg" version="1.1">
 <metadata>
  <rdf:RDF xmlns:dc="http://purl.org/dc/elements/1.1/" xmlns:cc="http://creativecommons.org/ns#" xmlns:rdf="http://www.w3.org/1999/02/22-rdf-syntax-ns#">
   <cc:Work>
    <dc:type rdf:resource="http://purl.org/dc/dcmitype/StillImage"/>
    <dc:date>2023-12-17T21:32:45.471393</dc:date>
    <dc:format>image/svg+xml</dc:format>
    <dc:creator>
     <cc:Agent>
      <dc:title>Matplotlib v3.5.1, https://matplotlib.org/</dc:title>
     </cc:Agent>
    </dc:creator>
   </cc:Work>
  </rdf:RDF>
 </metadata>
 <defs>
  <style type="text/css">*{stroke-linejoin: round; stroke-linecap: butt}</style>
 </defs>
 <g id="figure_1">
  <g id="patch_1">
   <path d="M 0 325.986375 
L 404.923125 325.986375 
L 404.923125 0 
L 0 0 
z
" style="fill: #ffffff"/>
  </g>
  <g id="axes_1">
   <g id="patch_2">
    <path d="M 40.603125 288.430125 
L 397.723125 288.430125 
L 397.723125 22.318125 
L 40.603125 22.318125 
z
" style="fill: #ffffff"/>
   </g>
   <g id="patch_3">
    <path d="M 56.835852 288.430125 
L 64.952216 288.430125 
L 64.952216 281.188982 
L 56.835852 281.188982 
z
" clip-path="url(#p85d6e04471)" style="fill: #87ceeb; fill-opacity: 0.5; stroke: #000000; stroke-width: 0.811636; stroke-linejoin: miter"/>
   </g>
   <g id="patch_4">
    <path d="M 64.952216 288.430125 
L 73.06858 288.430125 
L 73.06858 284.809554 
L 64.952216 284.809554 
z
" clip-path="url(#p85d6e04471)" style="fill: #87ceeb; fill-opacity: 0.5; stroke: #000000; stroke-width: 0.811636; stroke-linejoin: miter"/>
   </g>
   <g id="patch_5">
    <path d="M 73.06858 288.430125 
L 81.184943 288.430125 
L 81.184943 288.430125 
L 73.06858 288.430125 
z
" clip-path="url(#p85d6e04471)" style="fill: #87ceeb; fill-opacity: 0.5; stroke: #000000; stroke-width: 0.811636; stroke-linejoin: miter"/>
   </g>
   <g id="patch_6">
    <path d="M 81.184943 288.430125 
L 89.301307 288.430125 
L 89.301307 281.188982 
L 81.184943 281.188982 
z
" clip-path="url(#p85d6e04471)" style="fill: #87ceeb; fill-opacity: 0.5; stroke: #000000; stroke-width: 0.811636; stroke-linejoin: miter"/>
   </g>
   <g id="patch_7">
    <path d="M 89.301307 288.430125 
L 97.41767 288.430125 
L 97.41767 284.809554 
L 89.301307 284.809554 
z
" clip-path="url(#p85d6e04471)" style="fill: #87ceeb; fill-opacity: 0.5; stroke: #000000; stroke-width: 0.811636; stroke-linejoin: miter"/>
   </g>
   <g id="patch_8">
    <path d="M 97.41767 288.430125 
L 105.534034 288.430125 
L 105.534034 270.327268 
L 97.41767 270.327268 
z
" clip-path="url(#p85d6e04471)" style="fill: #87ceeb; fill-opacity: 0.5; stroke: #000000; stroke-width: 0.811636; stroke-linejoin: miter"/>
   </g>
   <g id="patch_9">
    <path d="M 105.534034 288.430125 
L 113.650398 288.430125 
L 113.650398 270.327268 
L 105.534034 270.327268 
z
" clip-path="url(#p85d6e04471)" style="fill: #87ceeb; fill-opacity: 0.5; stroke: #000000; stroke-width: 0.811636; stroke-linejoin: miter"/>
   </g>
   <g id="patch_10">
    <path d="M 113.650398 288.430125 
L 121.766761 288.430125 
L 121.766761 248.603839 
L 113.650398 248.603839 
z
" clip-path="url(#p85d6e04471)" style="fill: #87ceeb; fill-opacity: 0.5; stroke: #000000; stroke-width: 0.811636; stroke-linejoin: miter"/>
   </g>
   <g id="patch_11">
    <path d="M 121.766761 288.430125 
L 129.883125 288.430125 
L 129.883125 212.398125 
L 121.766761 212.398125 
z
" clip-path="url(#p85d6e04471)" style="fill: #87ceeb; fill-opacity: 0.5; stroke: #000000; stroke-width: 0.811636; stroke-linejoin: miter"/>
   </g>
   <g id="patch_12">
    <path d="M 129.883125 288.430125 
L 137.999489 288.430125 
L 137.999489 208.777554 
L 129.883125 208.777554 
z
" clip-path="url(#p85d6e04471)" style="fill: #87ceeb; fill-opacity: 0.5; stroke: #000000; stroke-width: 0.811636; stroke-linejoin: miter"/>
   </g>
   <g id="patch_13">
    <path d="M 137.999489 288.430125 
L 146.115852 288.430125 
L 146.115852 172.571839 
L 137.999489 172.571839 
z
" clip-path="url(#p85d6e04471)" style="fill: #87ceeb; fill-opacity: 0.5; stroke: #000000; stroke-width: 0.811636; stroke-linejoin: miter"/>
   </g>
   <g id="patch_14">
    <path d="M 146.115852 288.430125 
L 154.232216 288.430125 
L 154.232216 150.848411 
L 146.115852 150.848411 
z
" clip-path="url(#p85d6e04471)" style="fill: #87ceeb; fill-opacity: 0.5; stroke: #000000; stroke-width: 0.811636; stroke-linejoin: miter"/>
   </g>
   <g id="patch_15">
    <path d="M 154.232216 288.430125 
L 162.34858 288.430125 
L 162.34858 111.022125 
L 154.232216 111.022125 
z
" clip-path="url(#p85d6e04471)" style="fill: #87ceeb; fill-opacity: 0.5; stroke: #000000; stroke-width: 0.811636; stroke-linejoin: miter"/>
   </g>
   <g id="patch_16">
    <path d="M 162.34858 288.430125 
L 170.464943 288.430125 
L 170.464943 107.401554 
L 162.34858 107.401554 
z
" clip-path="url(#p85d6e04471)" style="fill: #87ceeb; fill-opacity: 0.5; stroke: #000000; stroke-width: 0.811636; stroke-linejoin: miter"/>
   </g>
   <g id="patch_17">
    <path d="M 170.464943 288.430125 
L 178.581307 288.430125 
L 178.581307 89.298696 
L 170.464943 89.298696 
z
" clip-path="url(#p85d6e04471)" style="fill: #87ceeb; fill-opacity: 0.5; stroke: #000000; stroke-width: 0.811636; stroke-linejoin: miter"/>
   </g>
   <g id="patch_18">
    <path d="M 178.581307 288.430125 
L 186.69767 288.430125 
L 186.69767 100.160411 
L 178.581307 100.160411 
z
" clip-path="url(#p85d6e04471)" style="fill: #87ceeb; fill-opacity: 0.5; stroke: #000000; stroke-width: 0.811636; stroke-linejoin: miter"/>
   </g>
   <g id="patch_19">
    <path d="M 186.69767 288.430125 
L 194.814034 288.430125 
L 194.814034 45.851839 
L 186.69767 45.851839 
z
" clip-path="url(#p85d6e04471)" style="fill: #87ceeb; fill-opacity: 0.5; stroke: #000000; stroke-width: 0.811636; stroke-linejoin: miter"/>
   </g>
   <g id="patch_20">
    <path d="M 194.814034 288.430125 
L 202.930398 288.430125 
L 202.930398 60.334125 
L 194.814034 60.334125 
z
" clip-path="url(#p85d6e04471)" style="fill: #87ceeb; fill-opacity: 0.5; stroke: #000000; stroke-width: 0.811636; stroke-linejoin: miter"/>
   </g>
   <g id="patch_21">
    <path d="M 202.930398 288.430125 
L 211.046761 288.430125 
L 211.046761 34.990125 
L 202.930398 34.990125 
z
" clip-path="url(#p85d6e04471)" style="fill: #87ceeb; fill-opacity: 0.5; stroke: #000000; stroke-width: 0.811636; stroke-linejoin: miter"/>
   </g>
   <g id="patch_22">
    <path d="M 211.046761 288.430125 
L 219.163125 288.430125 
L 219.163125 139.986696 
L 211.046761 139.986696 
z
" clip-path="url(#p85d6e04471)" style="fill: #87ceeb; fill-opacity: 0.5; stroke: #000000; stroke-width: 0.811636; stroke-linejoin: miter"/>
   </g>
   <g id="patch_23">
    <path d="M 219.163125 288.430125 
L 227.279489 288.430125 
L 227.279489 82.057554 
L 219.163125 82.057554 
z
" clip-path="url(#p85d6e04471)" style="fill: #87ceeb; fill-opacity: 0.5; stroke: #000000; stroke-width: 0.811636; stroke-linejoin: miter"/>
   </g>
   <g id="patch_24">
    <path d="M 227.279489 288.430125 
L 235.395852 288.430125 
L 235.395852 114.642696 
L 227.279489 114.642696 
z
" clip-path="url(#p85d6e04471)" style="fill: #87ceeb; fill-opacity: 0.5; stroke: #000000; stroke-width: 0.811636; stroke-linejoin: miter"/>
   </g>
   <g id="patch_25">
    <path d="M 235.395852 288.430125 
L 243.512216 288.430125 
L 243.512216 129.124982 
L 235.395852 129.124982 
z
" clip-path="url(#p85d6e04471)" style="fill: #87ceeb; fill-opacity: 0.5; stroke: #000000; stroke-width: 0.811636; stroke-linejoin: miter"/>
   </g>
   <g id="patch_26">
    <path d="M 243.512216 288.430125 
L 251.62858 288.430125 
L 251.62858 139.986696 
L 243.512216 139.986696 
z
" clip-path="url(#p85d6e04471)" style="fill: #87ceeb; fill-opacity: 0.5; stroke: #000000; stroke-width: 0.811636; stroke-linejoin: miter"/>
   </g>
   <g id="patch_27">
    <path d="M 251.62858 288.430125 
L 259.744943 288.430125 
L 259.744943 179.812982 
L 251.62858 179.812982 
z
" clip-path="url(#p85d6e04471)" style="fill: #87ceeb; fill-opacity: 0.5; stroke: #000000; stroke-width: 0.811636; stroke-linejoin: miter"/>
   </g>
   <g id="patch_28">
    <path d="M 259.744943 288.430125 
L 267.861307 288.430125 
L 267.861307 205.156982 
L 259.744943 205.156982 
z
" clip-path="url(#p85d6e04471)" style="fill: #87ceeb; fill-opacity: 0.5; stroke: #000000; stroke-width: 0.811636; stroke-linejoin: miter"/>
   </g>
   <g id="patch_29">
    <path d="M 267.861307 288.430125 
L 275.97767 288.430125 
L 275.97767 212.398125 
L 267.861307 212.398125 
z
" clip-path="url(#p85d6e04471)" style="fill: #87ceeb; fill-opacity: 0.5; stroke: #000000; stroke-width: 0.811636; stroke-linejoin: miter"/>
   </g>
   <g id="patch_30">
    <path d="M 275.97767 288.430125 
L 284.094034 288.430125 
L 284.094034 201.536411 
L 275.97767 201.536411 
z
" clip-path="url(#p85d6e04471)" style="fill: #87ceeb; fill-opacity: 0.5; stroke: #000000; stroke-width: 0.811636; stroke-linejoin: miter"/>
   </g>
   <g id="patch_31">
    <path d="M 284.094034 288.430125 
L 292.210398 288.430125 
L 292.210398 194.295268 
L 284.094034 194.295268 
z
" clip-path="url(#p85d6e04471)" style="fill: #87ceeb; fill-opacity: 0.5; stroke: #000000; stroke-width: 0.811636; stroke-linejoin: miter"/>
   </g>
   <g id="patch_32">
    <path d="M 292.210398 288.430125 
L 300.326761 288.430125 
L 300.326761 219.639268 
L 292.210398 219.639268 
z
" clip-path="url(#p85d6e04471)" style="fill: #87ceeb; fill-opacity: 0.5; stroke: #000000; stroke-width: 0.811636; stroke-linejoin: miter"/>
   </g>
   <g id="patch_33">
    <path d="M 300.326761 288.430125 
L 308.443125 288.430125 
L 308.443125 226.880411 
L 300.326761 226.880411 
z
" clip-path="url(#p85d6e04471)" style="fill: #87ceeb; fill-opacity: 0.5; stroke: #000000; stroke-width: 0.811636; stroke-linejoin: miter"/>
   </g>
   <g id="patch_34">
    <path d="M 308.443125 288.430125 
L 316.559489 288.430125 
L 316.559489 208.777554 
L 308.443125 208.777554 
z
" clip-path="url(#p85d6e04471)" style="fill: #87ceeb; fill-opacity: 0.5; stroke: #000000; stroke-width: 0.811636; stroke-linejoin: miter"/>
   </g>
   <g id="patch_35">
    <path d="M 316.559489 288.430125 
L 324.675852 288.430125 
L 324.675852 241.362696 
L 316.559489 241.362696 
z
" clip-path="url(#p85d6e04471)" style="fill: #87ceeb; fill-opacity: 0.5; stroke: #000000; stroke-width: 0.811636; stroke-linejoin: miter"/>
   </g>
   <g id="patch_36">
    <path d="M 324.675852 288.430125 
L 332.792216 288.430125 
L 332.792216 255.844982 
L 324.675852 255.844982 
z
" clip-path="url(#p85d6e04471)" style="fill: #87ceeb; fill-opacity: 0.5; stroke: #000000; stroke-width: 0.811636; stroke-linejoin: miter"/>
   </g>
   <g id="patch_37">
    <path d="M 332.792216 288.430125 
L 340.90858 288.430125 
L 340.90858 266.706696 
L 332.792216 266.706696 
z
" clip-path="url(#p85d6e04471)" style="fill: #87ceeb; fill-opacity: 0.5; stroke: #000000; stroke-width: 0.811636; stroke-linejoin: miter"/>
   </g>
   <g id="patch_38">
    <path d="M 340.90858 288.430125 
L 349.024943 288.430125 
L 349.024943 270.327268 
L 340.90858 270.327268 
z
" clip-path="url(#p85d6e04471)" style="fill: #87ceeb; fill-opacity: 0.5; stroke: #000000; stroke-width: 0.811636; stroke-linejoin: miter"/>
   </g>
   <g id="patch_39">
    <path d="M 349.024943 288.430125 
L 357.141307 288.430125 
L 357.141307 277.568411 
L 349.024943 277.568411 
z
" clip-path="url(#p85d6e04471)" style="fill: #87ceeb; fill-opacity: 0.5; stroke: #000000; stroke-width: 0.811636; stroke-linejoin: miter"/>
   </g>
   <g id="patch_40">
    <path d="M 357.141307 288.430125 
L 365.25767 288.430125 
L 365.25767 277.568411 
L 357.141307 277.568411 
z
" clip-path="url(#p85d6e04471)" style="fill: #87ceeb; fill-opacity: 0.5; stroke: #000000; stroke-width: 0.811636; stroke-linejoin: miter"/>
   </g>
   <g id="patch_41">
    <path d="M 365.25767 288.430125 
L 373.374034 288.430125 
L 373.374034 284.809554 
L 365.25767 284.809554 
z
" clip-path="url(#p85d6e04471)" style="fill: #87ceeb; fill-opacity: 0.5; stroke: #000000; stroke-width: 0.811636; stroke-linejoin: miter"/>
   </g>
   <g id="patch_42">
    <path d="M 373.374034 288.430125 
L 381.490398 288.430125 
L 381.490398 284.809554 
L 373.374034 284.809554 
z
" clip-path="url(#p85d6e04471)" style="fill: #87ceeb; fill-opacity: 0.5; stroke: #000000; stroke-width: 0.811636; stroke-linejoin: miter"/>
   </g>
   <g id="matplotlib.axis_1">
    <g id="xtick_1">
     <g id="line2d_1">
      <defs>
       <path id="mc4e38a1819" d="M 0 0 
L 0 3.5 
" style="stroke: #000000; stroke-width: 0.8"/>
      </defs>
      <g>
       <use xlink:href="#mc4e38a1819" x="83.902079" y="288.430125" style="stroke: #000000; stroke-width: 0.8"/>
      </g>
     </g>
     <g id="text_1">
      <!-- 2.5 -->
      <g transform="translate(75.950517 303.028562)scale(0.1 -0.1)">
       <defs>
        <path id="DejaVuSans-32" d="M 1228 531 
L 3431 531 
L 3431 0 
L 469 0 
L 469 531 
Q 828 903 1448 1529 
Q 2069 2156 2228 2338 
Q 2531 2678 2651 2914 
Q 2772 3150 2772 3378 
Q 2772 3750 2511 3984 
Q 2250 4219 1831 4219 
Q 1534 4219 1204 4116 
Q 875 4013 500 3803 
L 500 4441 
Q 881 4594 1212 4672 
Q 1544 4750 1819 4750 
Q 2544 4750 2975 4387 
Q 3406 4025 3406 3419 
Q 3406 3131 3298 2873 
Q 3191 2616 2906 2266 
Q 2828 2175 2409 1742 
Q 1991 1309 1228 531 
z
" transform="scale(0.015625)"/>
        <path id="DejaVuSans-2e" d="M 684 794 
L 1344 794 
L 1344 0 
L 684 0 
L 684 794 
z
" transform="scale(0.015625)"/>
        <path id="DejaVuSans-35" d="M 691 4666 
L 3169 4666 
L 3169 4134 
L 1269 4134 
L 1269 2991 
Q 1406 3038 1543 3061 
Q 1681 3084 1819 3084 
Q 2600 3084 3056 2656 
Q 3513 2228 3513 1497 
Q 3513 744 3044 326 
Q 2575 -91 1722 -91 
Q 1428 -91 1123 -41 
Q 819 9 494 109 
L 494 744 
Q 775 591 1075 516 
Q 1375 441 1709 441 
Q 2250 441 2565 725 
Q 2881 1009 2881 1497 
Q 2881 1984 2565 2268 
Q 2250 2553 1709 2553 
Q 1456 2553 1204 2497 
Q 953 2441 691 2322 
L 691 4666 
z
" transform="scale(0.015625)"/>
       </defs>
       <use xlink:href="#DejaVuSans-32"/>
       <use xlink:href="#DejaVuSans-2e" x="63.623047"/>
       <use xlink:href="#DejaVuSans-35" x="95.410156"/>
      </g>
     </g>
    </g>
    <g id="xtick_2">
     <g id="line2d_2">
      <g>
       <use xlink:href="#mc4e38a1819" x="129.012457" y="288.430125" style="stroke: #000000; stroke-width: 0.8"/>
      </g>
     </g>
     <g id="text_2">
      <!-- 5.0 -->
      <g transform="translate(121.060895 303.028562)scale(0.1 -0.1)">
       <defs>
        <path id="DejaVuSans-30" d="M 2034 4250 
Q 1547 4250 1301 3770 
Q 1056 3291 1056 2328 
Q 1056 1369 1301 889 
Q 1547 409 2034 409 
Q 2525 409 2770 889 
Q 3016 1369 3016 2328 
Q 3016 3291 2770 3770 
Q 2525 4250 2034 4250 
z
M 2034 4750 
Q 2819 4750 3233 4129 
Q 3647 3509 3647 2328 
Q 3647 1150 3233 529 
Q 2819 -91 2034 -91 
Q 1250 -91 836 529 
Q 422 1150 422 2328 
Q 422 3509 836 4129 
Q 1250 4750 2034 4750 
z
" transform="scale(0.015625)"/>
       </defs>
       <use xlink:href="#DejaVuSans-35"/>
       <use xlink:href="#DejaVuSans-2e" x="63.623047"/>
       <use xlink:href="#DejaVuSans-30" x="95.410156"/>
      </g>
     </g>
    </g>
    <g id="xtick_3">
     <g id="line2d_3">
      <g>
       <use xlink:href="#mc4e38a1819" x="174.122835" y="288.430125" style="stroke: #000000; stroke-width: 0.8"/>
      </g>
     </g>
     <g id="text_3">
      <!-- 7.5 -->
      <g transform="translate(166.171273 303.028562)scale(0.1 -0.1)">
       <defs>
        <path id="DejaVuSans-37" d="M 525 4666 
L 3525 4666 
L 3525 4397 
L 1831 0 
L 1172 0 
L 2766 4134 
L 525 4134 
L 525 4666 
z
" transform="scale(0.015625)"/>
       </defs>
       <use xlink:href="#DejaVuSans-37"/>
       <use xlink:href="#DejaVuSans-2e" x="63.623047"/>
       <use xlink:href="#DejaVuSans-35" x="95.410156"/>
      </g>
     </g>
    </g>
    <g id="xtick_4">
     <g id="line2d_4">
      <g>
       <use xlink:href="#mc4e38a1819" x="219.233213" y="288.430125" style="stroke: #000000; stroke-width: 0.8"/>
      </g>
     </g>
     <g id="text_4">
      <!-- 10.0 -->
      <g transform="translate(208.100401 303.028562)scale(0.1 -0.1)">
       <defs>
        <path id="DejaVuSans-31" d="M 794 531 
L 1825 531 
L 1825 4091 
L 703 3866 
L 703 4441 
L 1819 4666 
L 2450 4666 
L 2450 531 
L 3481 531 
L 3481 0 
L 794 0 
L 794 531 
z
" transform="scale(0.015625)"/>
       </defs>
       <use xlink:href="#DejaVuSans-31"/>
       <use xlink:href="#DejaVuSans-30" x="63.623047"/>
       <use xlink:href="#DejaVuSans-2e" x="127.246094"/>
       <use xlink:href="#DejaVuSans-30" x="159.033203"/>
      </g>
     </g>
    </g>
    <g id="xtick_5">
     <g id="line2d_5">
      <g>
       <use xlink:href="#mc4e38a1819" x="264.343591" y="288.430125" style="stroke: #000000; stroke-width: 0.8"/>
      </g>
     </g>
     <g id="text_5">
      <!-- 12.5 -->
      <g transform="translate(253.210779 303.028562)scale(0.1 -0.1)">
       <use xlink:href="#DejaVuSans-31"/>
       <use xlink:href="#DejaVuSans-32" x="63.623047"/>
       <use xlink:href="#DejaVuSans-2e" x="127.246094"/>
       <use xlink:href="#DejaVuSans-35" x="159.033203"/>
      </g>
     </g>
    </g>
    <g id="xtick_6">
     <g id="line2d_6">
      <g>
       <use xlink:href="#mc4e38a1819" x="309.453969" y="288.430125" style="stroke: #000000; stroke-width: 0.8"/>
      </g>
     </g>
     <g id="text_6">
      <!-- 15.0 -->
      <g transform="translate(298.321157 303.028562)scale(0.1 -0.1)">
       <use xlink:href="#DejaVuSans-31"/>
       <use xlink:href="#DejaVuSans-35" x="63.623047"/>
       <use xlink:href="#DejaVuSans-2e" x="127.246094"/>
       <use xlink:href="#DejaVuSans-30" x="159.033203"/>
      </g>
     </g>
    </g>
    <g id="xtick_7">
     <g id="line2d_7">
      <g>
       <use xlink:href="#mc4e38a1819" x="354.564347" y="288.430125" style="stroke: #000000; stroke-width: 0.8"/>
      </g>
     </g>
     <g id="text_7">
      <!-- 17.5 -->
      <g transform="translate(343.431535 303.028562)scale(0.1 -0.1)">
       <use xlink:href="#DejaVuSans-31"/>
       <use xlink:href="#DejaVuSans-37" x="63.623047"/>
       <use xlink:href="#DejaVuSans-2e" x="127.246094"/>
       <use xlink:href="#DejaVuSans-35" x="159.033203"/>
      </g>
     </g>
    </g>
    <g id="text_8">
     <!-- Values -->
     <g transform="translate(202.827188 316.706687)scale(0.1 -0.1)">
      <defs>
       <path id="DejaVuSans-56" d="M 1831 0 
L 50 4666 
L 709 4666 
L 2188 738 
L 3669 4666 
L 4325 4666 
L 2547 0 
L 1831 0 
z
" transform="scale(0.015625)"/>
       <path id="DejaVuSans-61" d="M 2194 1759 
Q 1497 1759 1228 1600 
Q 959 1441 959 1056 
Q 959 750 1161 570 
Q 1363 391 1709 391 
Q 2188 391 2477 730 
Q 2766 1069 2766 1631 
L 2766 1759 
L 2194 1759 
z
M 3341 1997 
L 3341 0 
L 2766 0 
L 2766 531 
Q 2569 213 2275 61 
Q 1981 -91 1556 -91 
Q 1019 -91 701 211 
Q 384 513 384 1019 
Q 384 1609 779 1909 
Q 1175 2209 1959 2209 
L 2766 2209 
L 2766 2266 
Q 2766 2663 2505 2880 
Q 2244 3097 1772 3097 
Q 1472 3097 1187 3025 
Q 903 2953 641 2809 
L 641 3341 
Q 956 3463 1253 3523 
Q 1550 3584 1831 3584 
Q 2591 3584 2966 3190 
Q 3341 2797 3341 1997 
z
" transform="scale(0.015625)"/>
       <path id="DejaVuSans-6c" d="M 603 4863 
L 1178 4863 
L 1178 0 
L 603 0 
L 603 4863 
z
" transform="scale(0.015625)"/>
       <path id="DejaVuSans-75" d="M 544 1381 
L 544 3500 
L 1119 3500 
L 1119 1403 
Q 1119 906 1312 657 
Q 1506 409 1894 409 
Q 2359 409 2629 706 
Q 2900 1003 2900 1516 
L 2900 3500 
L 3475 3500 
L 3475 0 
L 2900 0 
L 2900 538 
Q 2691 219 2414 64 
Q 2138 -91 1772 -91 
Q 1169 -91 856 284 
Q 544 659 544 1381 
z
M 1991 3584 
L 1991 3584 
z
" transform="scale(0.015625)"/>
       <path id="DejaVuSans-65" d="M 3597 1894 
L 3597 1613 
L 953 1613 
Q 991 1019 1311 708 
Q 1631 397 2203 397 
Q 2534 397 2845 478 
Q 3156 559 3463 722 
L 3463 178 
Q 3153 47 2828 -22 
Q 2503 -91 2169 -91 
Q 1331 -91 842 396 
Q 353 884 353 1716 
Q 353 2575 817 3079 
Q 1281 3584 2069 3584 
Q 2775 3584 3186 3129 
Q 3597 2675 3597 1894 
z
M 3022 2063 
Q 3016 2534 2758 2815 
Q 2500 3097 2075 3097 
Q 1594 3097 1305 2825 
Q 1016 2553 972 2059 
L 3022 2063 
z
" transform="scale(0.015625)"/>
       <path id="DejaVuSans-73" d="M 2834 3397 
L 2834 2853 
Q 2591 2978 2328 3040 
Q 2066 3103 1784 3103 
Q 1356 3103 1142 2972 
Q 928 2841 928 2578 
Q 928 2378 1081 2264 
Q 1234 2150 1697 2047 
L 1894 2003 
Q 2506 1872 2764 1633 
Q 3022 1394 3022 966 
Q 3022 478 2636 193 
Q 2250 -91 1575 -91 
Q 1294 -91 989 -36 
Q 684 19 347 128 
L 347 722 
Q 666 556 975 473 
Q 1284 391 1588 391 
Q 1994 391 2212 530 
Q 2431 669 2431 922 
Q 2431 1156 2273 1281 
Q 2116 1406 1581 1522 
L 1381 1569 
Q 847 1681 609 1914 
Q 372 2147 372 2553 
Q 372 3047 722 3315 
Q 1072 3584 1716 3584 
Q 2034 3584 2315 3537 
Q 2597 3491 2834 3397 
z
" transform="scale(0.015625)"/>
      </defs>
      <use xlink:href="#DejaVuSans-56"/>
      <use xlink:href="#DejaVuSans-61" x="60.658203"/>
      <use xlink:href="#DejaVuSans-6c" x="121.9375"/>
      <use xlink:href="#DejaVuSans-75" x="149.720703"/>
      <use xlink:href="#DejaVuSans-65" x="213.099609"/>
      <use xlink:href="#DejaVuSans-73" x="274.623047"/>
     </g>
    </g>
   </g>
   <g id="matplotlib.axis_2">
    <g id="ytick_1">
     <g id="line2d_8">
      <defs>
       <path id="mf5ecb97a05" d="M 0 0 
L -3.5 0 
" style="stroke: #000000; stroke-width: 0.8"/>
      </defs>
      <g>
       <use xlink:href="#mf5ecb97a05" x="40.603125" y="288.430125" style="stroke: #000000; stroke-width: 0.8"/>
      </g>
     </g>
     <g id="text_9">
      <!-- 0 -->
      <g transform="translate(27.240625 292.229344)scale(0.1 -0.1)">
       <use xlink:href="#DejaVuSans-30"/>
      </g>
     </g>
    </g>
    <g id="ytick_2">
     <g id="line2d_9">
      <g>
       <use xlink:href="#mf5ecb97a05" x="40.603125" y="252.224411" style="stroke: #000000; stroke-width: 0.8"/>
      </g>
     </g>
     <g id="text_10">
      <!-- 10 -->
      <g transform="translate(20.878125 256.023629)scale(0.1 -0.1)">
       <use xlink:href="#DejaVuSans-31"/>
       <use xlink:href="#DejaVuSans-30" x="63.623047"/>
      </g>
     </g>
    </g>
    <g id="ytick_3">
     <g id="line2d_10">
      <g>
       <use xlink:href="#mf5ecb97a05" x="40.603125" y="216.018696" style="stroke: #000000; stroke-width: 0.8"/>
      </g>
     </g>
     <g id="text_11">
      <!-- 20 -->
      <g transform="translate(20.878125 219.817915)scale(0.1 -0.1)">
       <use xlink:href="#DejaVuSans-32"/>
       <use xlink:href="#DejaVuSans-30" x="63.623047"/>
      </g>
     </g>
    </g>
    <g id="ytick_4">
     <g id="line2d_11">
      <g>
       <use xlink:href="#mf5ecb97a05" x="40.603125" y="179.812982" style="stroke: #000000; stroke-width: 0.8"/>
      </g>
     </g>
     <g id="text_12">
      <!-- 30 -->
      <g transform="translate(20.878125 183.612201)scale(0.1 -0.1)">
       <defs>
        <path id="DejaVuSans-33" d="M 2597 2516 
Q 3050 2419 3304 2112 
Q 3559 1806 3559 1356 
Q 3559 666 3084 287 
Q 2609 -91 1734 -91 
Q 1441 -91 1130 -33 
Q 819 25 488 141 
L 488 750 
Q 750 597 1062 519 
Q 1375 441 1716 441 
Q 2309 441 2620 675 
Q 2931 909 2931 1356 
Q 2931 1769 2642 2001 
Q 2353 2234 1838 2234 
L 1294 2234 
L 1294 2753 
L 1863 2753 
Q 2328 2753 2575 2939 
Q 2822 3125 2822 3475 
Q 2822 3834 2567 4026 
Q 2313 4219 1838 4219 
Q 1578 4219 1281 4162 
Q 984 4106 628 3988 
L 628 4550 
Q 988 4650 1302 4700 
Q 1616 4750 1894 4750 
Q 2613 4750 3031 4423 
Q 3450 4097 3450 3541 
Q 3450 3153 3228 2886 
Q 3006 2619 2597 2516 
z
" transform="scale(0.015625)"/>
       </defs>
       <use xlink:href="#DejaVuSans-33"/>
       <use xlink:href="#DejaVuSans-30" x="63.623047"/>
      </g>
     </g>
    </g>
    <g id="ytick_5">
     <g id="line2d_12">
      <g>
       <use xlink:href="#mf5ecb97a05" x="40.603125" y="143.607268" style="stroke: #000000; stroke-width: 0.8"/>
      </g>
     </g>
     <g id="text_13">
      <!-- 40 -->
      <g transform="translate(20.878125 147.406487)scale(0.1 -0.1)">
       <defs>
        <path id="DejaVuSans-34" d="M 2419 4116 
L 825 1625 
L 2419 1625 
L 2419 4116 
z
M 2253 4666 
L 3047 4666 
L 3047 1625 
L 3713 1625 
L 3713 1100 
L 3047 1100 
L 3047 0 
L 2419 0 
L 2419 1100 
L 313 1100 
L 313 1709 
L 2253 4666 
z
" transform="scale(0.015625)"/>
       </defs>
       <use xlink:href="#DejaVuSans-34"/>
       <use xlink:href="#DejaVuSans-30" x="63.623047"/>
      </g>
     </g>
    </g>
    <g id="ytick_6">
     <g id="line2d_13">
      <g>
       <use xlink:href="#mf5ecb97a05" x="40.603125" y="107.401554" style="stroke: #000000; stroke-width: 0.8"/>
      </g>
     </g>
     <g id="text_14">
      <!-- 50 -->
      <g transform="translate(20.878125 111.200772)scale(0.1 -0.1)">
       <use xlink:href="#DejaVuSans-35"/>
       <use xlink:href="#DejaVuSans-30" x="63.623047"/>
      </g>
     </g>
    </g>
    <g id="ytick_7">
     <g id="line2d_14">
      <g>
       <use xlink:href="#mf5ecb97a05" x="40.603125" y="71.195839" style="stroke: #000000; stroke-width: 0.8"/>
      </g>
     </g>
     <g id="text_15">
      <!-- 60 -->
      <g transform="translate(20.878125 74.995058)scale(0.1 -0.1)">
       <defs>
        <path id="DejaVuSans-36" d="M 2113 2584 
Q 1688 2584 1439 2293 
Q 1191 2003 1191 1497 
Q 1191 994 1439 701 
Q 1688 409 2113 409 
Q 2538 409 2786 701 
Q 3034 994 3034 1497 
Q 3034 2003 2786 2293 
Q 2538 2584 2113 2584 
z
M 3366 4563 
L 3366 3988 
Q 3128 4100 2886 4159 
Q 2644 4219 2406 4219 
Q 1781 4219 1451 3797 
Q 1122 3375 1075 2522 
Q 1259 2794 1537 2939 
Q 1816 3084 2150 3084 
Q 2853 3084 3261 2657 
Q 3669 2231 3669 1497 
Q 3669 778 3244 343 
Q 2819 -91 2113 -91 
Q 1303 -91 875 529 
Q 447 1150 447 2328 
Q 447 3434 972 4092 
Q 1497 4750 2381 4750 
Q 2619 4750 2861 4703 
Q 3103 4656 3366 4563 
z
" transform="scale(0.015625)"/>
       </defs>
       <use xlink:href="#DejaVuSans-36"/>
       <use xlink:href="#DejaVuSans-30" x="63.623047"/>
      </g>
     </g>
    </g>
    <g id="ytick_8">
     <g id="line2d_15">
      <g>
       <use xlink:href="#mf5ecb97a05" x="40.603125" y="34.990125" style="stroke: #000000; stroke-width: 0.8"/>
      </g>
     </g>
     <g id="text_16">
      <!-- 70 -->
      <g transform="translate(20.878125 38.789344)scale(0.1 -0.1)">
       <use xlink:href="#DejaVuSans-37"/>
       <use xlink:href="#DejaVuSans-30" x="63.623047"/>
      </g>
     </g>
    </g>
    <g id="text_17">
     <!-- Count -->
     <g transform="translate(14.798438 170.222562)rotate(-90)scale(0.1 -0.1)">
      <defs>
       <path id="DejaVuSans-43" d="M 4122 4306 
L 4122 3641 
Q 3803 3938 3442 4084 
Q 3081 4231 2675 4231 
Q 1875 4231 1450 3742 
Q 1025 3253 1025 2328 
Q 1025 1406 1450 917 
Q 1875 428 2675 428 
Q 3081 428 3442 575 
Q 3803 722 4122 1019 
L 4122 359 
Q 3791 134 3420 21 
Q 3050 -91 2638 -91 
Q 1578 -91 968 557 
Q 359 1206 359 2328 
Q 359 3453 968 4101 
Q 1578 4750 2638 4750 
Q 3056 4750 3426 4639 
Q 3797 4528 4122 4306 
z
" transform="scale(0.015625)"/>
       <path id="DejaVuSans-6f" d="M 1959 3097 
Q 1497 3097 1228 2736 
Q 959 2375 959 1747 
Q 959 1119 1226 758 
Q 1494 397 1959 397 
Q 2419 397 2687 759 
Q 2956 1122 2956 1747 
Q 2956 2369 2687 2733 
Q 2419 3097 1959 3097 
z
M 1959 3584 
Q 2709 3584 3137 3096 
Q 3566 2609 3566 1747 
Q 3566 888 3137 398 
Q 2709 -91 1959 -91 
Q 1206 -91 779 398 
Q 353 888 353 1747 
Q 353 2609 779 3096 
Q 1206 3584 1959 3584 
z
" transform="scale(0.015625)"/>
       <path id="DejaVuSans-6e" d="M 3513 2113 
L 3513 0 
L 2938 0 
L 2938 2094 
Q 2938 2591 2744 2837 
Q 2550 3084 2163 3084 
Q 1697 3084 1428 2787 
Q 1159 2491 1159 1978 
L 1159 0 
L 581 0 
L 581 3500 
L 1159 3500 
L 1159 2956 
Q 1366 3272 1645 3428 
Q 1925 3584 2291 3584 
Q 2894 3584 3203 3211 
Q 3513 2838 3513 2113 
z
" transform="scale(0.015625)"/>
       <path id="DejaVuSans-74" d="M 1172 4494 
L 1172 3500 
L 2356 3500 
L 2356 3053 
L 1172 3053 
L 1172 1153 
Q 1172 725 1289 603 
Q 1406 481 1766 481 
L 2356 481 
L 2356 0 
L 1766 0 
Q 1100 0 847 248 
Q 594 497 594 1153 
L 594 3053 
L 172 3053 
L 172 3500 
L 594 3500 
L 594 4494 
L 1172 4494 
z
" transform="scale(0.015625)"/>
      </defs>
      <use xlink:href="#DejaVuSans-43"/>
      <use xlink:href="#DejaVuSans-6f" x="69.824219"/>
      <use xlink:href="#DejaVuSans-75" x="131.005859"/>
      <use xlink:href="#DejaVuSans-6e" x="194.384766"/>
      <use xlink:href="#DejaVuSans-74" x="257.763672"/>
     </g>
    </g>
   </g>
   <g id="line2d_16">
    <path d="M 56.835852 286.050884 
L 69.887291 284.653659 
L 74.781581 283.846668 
L 78.044441 283.103266 
L 81.3073 282.140706 
L 84.57016 280.913707 
L 87.83302 279.37676 
L 91.09588 277.48096 
L 94.358739 275.170698 
L 97.621599 272.381724 
L 100.884459 269.042096 
L 104.147319 265.077253 
L 107.410178 260.419568 
L 110.673038 255.021214 
L 113.935898 248.867392 
L 117.198758 241.985636 
L 120.461617 234.447031 
L 123.724477 226.357177 
L 128.618767 213.454855 
L 135.144486 195.362135 
L 141.670206 176.644836 
L 151.458785 147.734574 
L 157.984505 128.698283 
L 161.247364 119.680976 
L 164.510224 111.220267 
L 167.773084 103.446961 
L 171.035944 96.437431 
L 174.298803 90.210774 
L 177.561663 84.746418 
L 180.824523 80.018631 
L 182.455953 77.931572 
L 184.087383 76.036913 
L 185.718813 74.346364 
L 187.350242 72.876329 
L 188.981672 71.647284 
L 190.613102 70.682623 
L 192.244532 70.007007 
L 193.875962 69.644353 
L 195.507392 69.615634 
L 197.138822 69.936665 
L 198.770252 70.616124 
L 200.401681 71.653984 
L 202.033111 73.040543 
L 203.664541 74.756171 
L 205.295971 76.771823 
L 206.927401 79.050313 
L 210.190261 84.218329 
L 215.08455 92.789063 
L 219.97884 101.393914 
L 224.87313 109.528431 
L 233.030279 122.70737 
L 236.293139 128.36708 
L 239.555998 134.487971 
L 242.818858 141.133579 
L 246.081718 148.270305 
L 250.976008 159.587144 
L 255.870297 170.944532 
L 259.133157 178.089128 
L 262.396017 184.603147 
L 265.658876 190.307277 
L 267.290306 192.822742 
L 268.921736 195.107844 
L 270.553166 197.165271 
L 272.184596 199.003043 
L 273.816026 200.633991 
L 275.447456 202.075104 
L 277.078886 203.346786 
L 280.341745 205.475698 
L 283.604605 207.221395 
L 293.393184 212.092999 
L 296.656044 214.09531 
L 299.918904 216.438544 
L 303.181764 219.157936 
L 306.444623 222.260732 
L 309.707483 225.732319 
L 312.970343 229.539245 
L 316.233203 233.629318 
L 321.127492 240.132871 
L 329.284642 251.132181 
L 332.547501 255.276717 
L 335.810361 259.140604 
L 339.073221 262.670969 
L 342.336081 265.848809 
L 345.59894 268.686095 
L 348.8618 271.217091 
L 352.12466 273.486493 
L 355.38752 275.537637 
L 360.281809 278.273647 
L 365.176099 280.641951 
L 368.438959 282.016511 
L 371.701818 283.221933 
L 374.964678 284.257196 
L 378.227538 285.128602 
L 381.490398 285.849839 
L 381.490398 285.849839 
" clip-path="url(#p85d6e04471)" style="fill: none; stroke: #87ceeb; stroke-width: 1.5; stroke-linecap: square"/>
   </g>
   <g id="patch_43">
    <path d="M 40.603125 288.430125 
L 40.603125 22.318125 
" style="fill: none; stroke: #000000; stroke-width: 0.8; stroke-linejoin: miter; stroke-linecap: square"/>
   </g>
   <g id="patch_44">
    <path d="M 397.723125 288.430125 
L 397.723125 22.318125 
" style="fill: none; stroke: #000000; stroke-width: 0.8; stroke-linejoin: miter; stroke-linecap: square"/>
   </g>
   <g id="patch_45">
    <path d="M 40.603125 288.430125 
L 397.723125 288.430125 
" style="fill: none; stroke: #000000; stroke-width: 0.8; stroke-linejoin: miter; stroke-linecap: square"/>
   </g>
   <g id="patch_46">
    <path d="M 40.603125 22.318125 
L 397.723125 22.318125 
" style="fill: none; stroke: #000000; stroke-width: 0.8; stroke-linejoin: miter; stroke-linecap: square"/>
   </g>
   <g id="text_18">
    <!-- Histogram Distribution - Pheno2 -->
    <g transform="translate(122.746875 16.318125)scale(0.12 -0.12)">
     <defs>
      <path id="DejaVuSans-48" d="M 628 4666 
L 1259 4666 
L 1259 2753 
L 3553 2753 
L 3553 4666 
L 4184 4666 
L 4184 0 
L 3553 0 
L 3553 2222 
L 1259 2222 
L 1259 0 
L 628 0 
L 628 4666 
z
" transform="scale(0.015625)"/>
      <path id="DejaVuSans-69" d="M 603 3500 
L 1178 3500 
L 1178 0 
L 603 0 
L 603 3500 
z
M 603 4863 
L 1178 4863 
L 1178 4134 
L 603 4134 
L 603 4863 
z
" transform="scale(0.015625)"/>
      <path id="DejaVuSans-67" d="M 2906 1791 
Q 2906 2416 2648 2759 
Q 2391 3103 1925 3103 
Q 1463 3103 1205 2759 
Q 947 2416 947 1791 
Q 947 1169 1205 825 
Q 1463 481 1925 481 
Q 2391 481 2648 825 
Q 2906 1169 2906 1791 
z
M 3481 434 
Q 3481 -459 3084 -895 
Q 2688 -1331 1869 -1331 
Q 1566 -1331 1297 -1286 
Q 1028 -1241 775 -1147 
L 775 -588 
Q 1028 -725 1275 -790 
Q 1522 -856 1778 -856 
Q 2344 -856 2625 -561 
Q 2906 -266 2906 331 
L 2906 616 
Q 2728 306 2450 153 
Q 2172 0 1784 0 
Q 1141 0 747 490 
Q 353 981 353 1791 
Q 353 2603 747 3093 
Q 1141 3584 1784 3584 
Q 2172 3584 2450 3431 
Q 2728 3278 2906 2969 
L 2906 3500 
L 3481 3500 
L 3481 434 
z
" transform="scale(0.015625)"/>
      <path id="DejaVuSans-72" d="M 2631 2963 
Q 2534 3019 2420 3045 
Q 2306 3072 2169 3072 
Q 1681 3072 1420 2755 
Q 1159 2438 1159 1844 
L 1159 0 
L 581 0 
L 581 3500 
L 1159 3500 
L 1159 2956 
Q 1341 3275 1631 3429 
Q 1922 3584 2338 3584 
Q 2397 3584 2469 3576 
Q 2541 3569 2628 3553 
L 2631 2963 
z
" transform="scale(0.015625)"/>
      <path id="DejaVuSans-6d" d="M 3328 2828 
Q 3544 3216 3844 3400 
Q 4144 3584 4550 3584 
Q 5097 3584 5394 3201 
Q 5691 2819 5691 2113 
L 5691 0 
L 5113 0 
L 5113 2094 
Q 5113 2597 4934 2840 
Q 4756 3084 4391 3084 
Q 3944 3084 3684 2787 
Q 3425 2491 3425 1978 
L 3425 0 
L 2847 0 
L 2847 2094 
Q 2847 2600 2669 2842 
Q 2491 3084 2119 3084 
Q 1678 3084 1418 2786 
Q 1159 2488 1159 1978 
L 1159 0 
L 581 0 
L 581 3500 
L 1159 3500 
L 1159 2956 
Q 1356 3278 1631 3431 
Q 1906 3584 2284 3584 
Q 2666 3584 2933 3390 
Q 3200 3197 3328 2828 
z
" transform="scale(0.015625)"/>
      <path id="DejaVuSans-20" transform="scale(0.015625)"/>
      <path id="DejaVuSans-44" d="M 1259 4147 
L 1259 519 
L 2022 519 
Q 2988 519 3436 956 
Q 3884 1394 3884 2338 
Q 3884 3275 3436 3711 
Q 2988 4147 2022 4147 
L 1259 4147 
z
M 628 4666 
L 1925 4666 
Q 3281 4666 3915 4102 
Q 4550 3538 4550 2338 
Q 4550 1131 3912 565 
Q 3275 0 1925 0 
L 628 0 
L 628 4666 
z
" transform="scale(0.015625)"/>
      <path id="DejaVuSans-62" d="M 3116 1747 
Q 3116 2381 2855 2742 
Q 2594 3103 2138 3103 
Q 1681 3103 1420 2742 
Q 1159 2381 1159 1747 
Q 1159 1113 1420 752 
Q 1681 391 2138 391 
Q 2594 391 2855 752 
Q 3116 1113 3116 1747 
z
M 1159 2969 
Q 1341 3281 1617 3432 
Q 1894 3584 2278 3584 
Q 2916 3584 3314 3078 
Q 3713 2572 3713 1747 
Q 3713 922 3314 415 
Q 2916 -91 2278 -91 
Q 1894 -91 1617 61 
Q 1341 213 1159 525 
L 1159 0 
L 581 0 
L 581 4863 
L 1159 4863 
L 1159 2969 
z
" transform="scale(0.015625)"/>
      <path id="DejaVuSans-2d" d="M 313 2009 
L 1997 2009 
L 1997 1497 
L 313 1497 
L 313 2009 
z
" transform="scale(0.015625)"/>
      <path id="DejaVuSans-50" d="M 1259 4147 
L 1259 2394 
L 2053 2394 
Q 2494 2394 2734 2622 
Q 2975 2850 2975 3272 
Q 2975 3691 2734 3919 
Q 2494 4147 2053 4147 
L 1259 4147 
z
M 628 4666 
L 2053 4666 
Q 2838 4666 3239 4311 
Q 3641 3956 3641 3272 
Q 3641 2581 3239 2228 
Q 2838 1875 2053 1875 
L 1259 1875 
L 1259 0 
L 628 0 
L 628 4666 
z
" transform="scale(0.015625)"/>
      <path id="DejaVuSans-68" d="M 3513 2113 
L 3513 0 
L 2938 0 
L 2938 2094 
Q 2938 2591 2744 2837 
Q 2550 3084 2163 3084 
Q 1697 3084 1428 2787 
Q 1159 2491 1159 1978 
L 1159 0 
L 581 0 
L 581 4863 
L 1159 4863 
L 1159 2956 
Q 1366 3272 1645 3428 
Q 1925 3584 2291 3584 
Q 2894 3584 3203 3211 
Q 3513 2838 3513 2113 
z
" transform="scale(0.015625)"/>
     </defs>
     <use xlink:href="#DejaVuSans-48"/>
     <use xlink:href="#DejaVuSans-69" x="75.195312"/>
     <use xlink:href="#DejaVuSans-73" x="102.978516"/>
     <use xlink:href="#DejaVuSans-74" x="155.078125"/>
     <use xlink:href="#DejaVuSans-6f" x="194.287109"/>
     <use xlink:href="#DejaVuSans-67" x="255.46875"/>
     <use xlink:href="#DejaVuSans-72" x="318.945312"/>
     <use xlink:href="#DejaVuSans-61" x="360.058594"/>
     <use xlink:href="#DejaVuSans-6d" x="421.337891"/>
     <use xlink:href="#DejaVuSans-20" x="518.75"/>
     <use xlink:href="#DejaVuSans-44" x="550.537109"/>
     <use xlink:href="#DejaVuSans-69" x="627.539062"/>
     <use xlink:href="#DejaVuSans-73" x="655.322266"/>
     <use xlink:href="#DejaVuSans-74" x="707.421875"/>
     <use xlink:href="#DejaVuSans-72" x="746.630859"/>
     <use xlink:href="#DejaVuSans-69" x="787.744141"/>
     <use xlink:href="#DejaVuSans-62" x="815.527344"/>
     <use xlink:href="#DejaVuSans-75" x="879.003906"/>
     <use xlink:href="#DejaVuSans-74" x="942.382812"/>
     <use xlink:href="#DejaVuSans-69" x="981.591797"/>
     <use xlink:href="#DejaVuSans-6f" x="1009.375"/>
     <use xlink:href="#DejaVuSans-6e" x="1070.556641"/>
     <use xlink:href="#DejaVuSans-20" x="1133.935547"/>
     <use xlink:href="#DejaVuSans-2d" x="1165.722656"/>
     <use xlink:href="#DejaVuSans-20" x="1201.806641"/>
     <use xlink:href="#DejaVuSans-50" x="1233.59375"/>
     <use xlink:href="#DejaVuSans-68" x="1293.896484"/>
     <use xlink:href="#DejaVuSans-65" x="1357.275391"/>
     <use xlink:href="#DejaVuSans-6e" x="1418.798828"/>
     <use xlink:href="#DejaVuSans-6f" x="1482.177734"/>
     <use xlink:href="#DejaVuSans-32" x="1543.359375"/>
    </g>
   </g>
  </g>
 </g>
 <defs>
  <clipPath id="p85d6e04471">
   <rect x="40.603125" y="22.318125" width="357.12" height="266.112"/>
  </clipPath>
 </defs>
</svg>
